# xmcd
#
# Track frame offsets: 
#        150
#        20330
#        43060
#        66240
#        89045
#        108175
#        130680
#        150372
#        168639
#        188076
#
# Disc length: 2797 seconds
#
# Revision: 1
# Processed by: cddbd v1.5.2PL0 Copyright (c) Steve Scherf et al.
# Submitted via: ExactAudioCopyFreeDBPlugin 1.0
#
DISCID=7d0aeb0a
DTITLE=Nicole Willis - Enigmatic
DYEAR=2013
DGENRE=Soul
TTITLE0=369 Degree Grind
TTITLE1=Enigmatic
TTITLE2=Transcend Our Love
TTITLE3=Tombstone
TTITLE4=So Refined
TTITLE5=I Made Up My Mind
TTITLE6=Satyricon
TTITLE7=Wild Honey
TTITLE8=Brooklyn Girl
TTITLE9=Classified
EXTD=YEAR: 2013
EXTT0=
EXTT1=
EXTT2=
EXTT3=
EXTT4=
EXTT5=
EXTT6=
EXTT7=
EXTT8=
EXTT9=
PLAYORDER=
